<svg width="667" height="536" viewBox="0 0 667 536" fill="none" xmlns="http://www.w3.org/2000/svg">
<g clip-path="url(#clip0)">
<g filter="url(#filter0_d)">
<path d="M444.489 232.441C444.489 232.441 414.571 255.945 429.53 261.287C444.489 266.629 454.105 242.057 454.105 242.057L444.489 232.441Z" fill="#FFB8B8"/>
</g>
<g filter="url(#filter1_d)">
<path d="M445.557 223.895L439.146 234.578C439.146 234.578 449.831 234.578 451.968 250.604L460.516 239.92L445.557 223.895Z" fill="#CFCCE0"/>
</g>
<g filter="url(#filter2_d)">
<path d="M587.666 467.481L588.735 499.532L575.913 507.01L570.57 503.806L571.639 467.481H587.666Z" fill="#FFB8B8"/>
</g>
<g filter="url(#filter3_d)">
<path d="M511.803 458.934L513.94 493.122L484.023 505.942L486.16 487.78C486.16 487.78 494.708 473.892 492.571 458.934H511.803Z" fill="#FFB8B8"/>
</g>
<g filter="url(#filter4_d)">
<path d="M557.748 201.459C557.748 201.459 574.844 246.33 578.05 274.108C581.255 301.885 586.597 375.602 586.597 375.602L597.282 470.686L567.365 474.96L554.543 378.807L525.694 283.723L519.283 378.807L513.94 465.345L486.16 466.413L484.023 376.67L472.269 262.356L478.68 207.869L557.748 201.459Z" fill="#2F2E41"/>
</g>
<g filter="url(#filter5_d)">
<path d="M573.776 501.669C573.776 501.669 575.528 483.726 588.542 493.766L590.871 492.054L601.556 515.558C601.556 515.558 614.378 533.72 591.94 535.857C569.502 537.993 571.639 515.558 571.639 515.558L569.502 505.942L570.57 499.646L573.776 501.669Z" fill="#2F2E41"/>
</g>
<g filter="url(#filter6_d)">
<path d="M511.803 480.302C514.433 481.805 516.613 483.985 518.116 486.615C519.619 489.245 520.391 492.23 520.351 495.259C520.351 505.942 519.283 507.011 519.283 507.011L503.256 511.284C503.256 511.284 492.571 510.216 486.16 516.626C479.749 523.036 447.694 527.31 447.694 518.763C447.694 510.216 474.406 496.327 474.406 496.327C474.406 496.327 482.339 482.932 487.989 484.288C493.639 485.643 495.776 487.78 495.776 488.849C495.776 489.917 492.571 497.395 492.571 497.395C492.571 497.395 510.735 493.122 511.803 480.302Z" fill="#2F2E41"/>
</g>
<g filter="url(#filter7_d)">
<path d="M509.666 70.0503C524.419 70.0503 536.379 58.0923 536.379 43.3412C536.379 28.5902 524.419 16.6322 509.666 16.6322C494.914 16.6322 482.954 28.5902 482.954 43.3412C482.954 58.0923 494.914 70.0503 509.666 70.0503Z" fill="#FFB8B8"/>
</g>
<g filter="url(#filter8_d)">
<path d="M529.433 50.2856L541.187 76.9947L509.132 122.934C509.132 122.934 506.995 72.7212 500.584 64.1743C494.173 55.6274 529.433 50.2856 529.433 50.2856Z" fill="#FFB8B8"/>
</g>
<g filter="url(#filter9_d)">
<path d="M514.475 105.841L519.817 91.952L524.091 93.0201L529.434 88.7466L536.913 65.2429L547.598 72.7212L561.488 212.677L474.941 214.813L486.694 117.592L497.379 89.8153L505.092 79.6202L510.201 95.1568L514.475 105.841Z" fill="#CFCCE0"/>
</g>
<g filter="url(#filter10_d)">
<path d="M539.05 165.669L542.319 69.0268C542.319 69.0268 548.666 69.5162 550.803 72.7212C552.94 75.9263 588.2 82.3365 588.2 82.3365L581.789 181.694C581.789 181.694 608.502 260.753 598.885 265.027C589.269 269.3 572.173 268.232 572.173 268.232L539.05 165.669Z" fill="#575A89"/>
</g>
<g filter="url(#filter11_d)">
<path d="M487.228 153.383L498.563 88.2497L473.338 105.306L479.749 152.314L474.406 184.365C474.406 184.365 454.105 273.039 460.516 276.244C466.927 279.449 474.406 276.244 474.406 276.244L487.228 186.502V153.383Z" fill="#575A89"/>
</g>
<g filter="url(#filter12_d)">
<path d="M480.817 103.17L473.338 105.306L470.132 148.041L464.79 185.434L439.146 231.373C439.146 231.373 451.968 222.826 457.311 247.399L485.552 198.236L480.817 103.17Z" fill="#575A89"/>
</g>
<g filter="url(#filter13_d)">
<path d="M564.159 223.895C564.159 223.895 534.242 247.399 549.2 252.74C564.159 258.082 573.776 233.51 573.776 233.51L564.159 223.895Z" fill="#FFB8B8"/>
</g>
<g filter="url(#filter14_d)">
<path d="M582.324 235.647L572.707 247.398L559.885 224.963L565.228 215.348L582.324 235.647Z" fill="#CFCCE0"/>
</g>
<g filter="url(#filter15_d)">
<path d="M580.187 86.0758L588.734 81.8023C588.734 81.8023 595.145 90.3492 596.214 97.8278C597.282 105.306 602.625 114.922 602.625 120.263C602.625 125.605 617.584 175.818 617.584 175.818L583.392 245.262C583.392 245.262 575.913 219.621 559.885 217.484L586.598 180.092L571.639 153.383L580.187 86.0758Z" fill="#575A89"/>
</g>
<g filter="url(#filter16_d)">
<path d="M532.029 17.8932L537.066 15.8769C537.066 15.8769 526.534 4.28275 511.88 5.29098L516.001 0.754102C516.001 0.754102 505.927 -3.2786 496.768 7.30729C491.954 12.8721 486.383 19.4132 482.911 26.7816H477.516L479.768 31.7385L471.888 36.6954L479.976 35.805C479.494 38.5195 479.42 41.2907 479.756 44.0269C480.103 46.7641 481.5 49.2593 483.652 50.9861C483.652 50.9861 489.899 38.0569 489.899 36.0405V41.0814C489.899 41.0814 494.937 36.5446 494.937 33.5201L497.684 37.0487L499.058 31.5037L516.001 37.0487L513.254 32.5119L523.786 34.0242L519.664 28.4791C519.664 28.4791 531.571 35.0323 532.029 40.5773C532.486 46.1223 535.971 51.3765 535.971 51.3765C535.971 51.3765 545.308 25.4546 532.029 17.8932Z" fill="#DEB887"/>
</g>
<g filter="url(#filter17_d)">
<path d="M531.57 42.8071C533.223 42.8071 534.562 41.1329 534.562 39.0678C534.562 37.0027 533.223 35.3285 531.57 35.3285C529.918 35.3285 528.579 37.0027 528.579 39.0678C528.579 41.1329 529.918 42.8071 531.57 42.8071Z" fill="#FFB8B8"/>
</g>
</g>
<defs>
<filter id="filter0_d" x="421.341" y="232.441" width="36.7636" height="37.6057" filterUnits="userSpaceOnUse" color-interpolation-filters="sRGB">
<feFlood flood-opacity="0" result="BackgroundImageFix"/>
<feColorMatrix in="SourceAlpha" type="matrix" values="0 0 0 0 0 0 0 0 0 0 0 0 0 0 0 0 0 0 127 0"/>
<feOffset dy="4"/>
<feGaussianBlur stdDeviation="2"/>
<feColorMatrix type="matrix" values="0 0 0 0 0 0 0 0 0 0 0 0 0 0 0 0 0 0 0.25 0"/>
<feBlend mode="normal" in2="BackgroundImageFix" result="effect1_dropShadow"/>
<feBlend mode="normal" in="SourceGraphic" in2="effect1_dropShadow" result="shape"/>
</filter>
<filter id="filter1_d" x="435.146" y="223.895" width="29.3697" height="34.7091" filterUnits="userSpaceOnUse" color-interpolation-filters="sRGB">
<feFlood flood-opacity="0" result="BackgroundImageFix"/>
<feColorMatrix in="SourceAlpha" type="matrix" values="0 0 0 0 0 0 0 0 0 0 0 0 0 0 0 0 0 0 127 0"/>
<feOffset dy="4"/>
<feGaussianBlur stdDeviation="2"/>
<feColorMatrix type="matrix" values="0 0 0 0 0 0 0 0 0 0 0 0 0 0 0 0 0 0 0.25 0"/>
<feBlend mode="normal" in2="BackgroundImageFix" result="effect1_dropShadow"/>
<feBlend mode="normal" in="SourceGraphic" in2="effect1_dropShadow" result="shape"/>
</filter>
<filter id="filter2_d" x="566.57" y="467.481" width="26.1642" height="47.529" filterUnits="userSpaceOnUse" color-interpolation-filters="sRGB">
<feFlood flood-opacity="0" result="BackgroundImageFix"/>
<feColorMatrix in="SourceAlpha" type="matrix" values="0 0 0 0 0 0 0 0 0 0 0 0 0 0 0 0 0 0 127 0"/>
<feOffset dy="4"/>
<feGaussianBlur stdDeviation="2"/>
<feColorMatrix type="matrix" values="0 0 0 0 0 0 0 0 0 0 0 0 0 0 0 0 0 0 0.25 0"/>
<feBlend mode="normal" in2="BackgroundImageFix" result="effect1_dropShadow"/>
<feBlend mode="normal" in="SourceGraphic" in2="effect1_dropShadow" result="shape"/>
</filter>
<filter id="filter3_d" x="480.023" y="458.934" width="37.9177" height="55.008" filterUnits="userSpaceOnUse" color-interpolation-filters="sRGB">
<feFlood flood-opacity="0" result="BackgroundImageFix"/>
<feColorMatrix in="SourceAlpha" type="matrix" values="0 0 0 0 0 0 0 0 0 0 0 0 0 0 0 0 0 0 127 0"/>
<feOffset dy="4"/>
<feGaussianBlur stdDeviation="2"/>
<feColorMatrix type="matrix" values="0 0 0 0 0 0 0 0 0 0 0 0 0 0 0 0 0 0 0.25 0"/>
<feBlend mode="normal" in2="BackgroundImageFix" result="effect1_dropShadow"/>
<feBlend mode="normal" in="SourceGraphic" in2="effect1_dropShadow" result="shape"/>
</filter>
<filter id="filter4_d" x="468.269" y="201.459" width="133.013" height="281.501" filterUnits="userSpaceOnUse" color-interpolation-filters="sRGB">
<feFlood flood-opacity="0" result="BackgroundImageFix"/>
<feColorMatrix in="SourceAlpha" type="matrix" values="0 0 0 0 0 0 0 0 0 0 0 0 0 0 0 0 0 0 127 0"/>
<feOffset dy="4"/>
<feGaussianBlur stdDeviation="2"/>
<feColorMatrix type="matrix" values="0 0 0 0 0 0 0 0 0 0 0 0 0 0 0 0 0 0 0.25 0"/>
<feBlend mode="normal" in2="BackgroundImageFix" result="effect1_dropShadow"/>
<feBlend mode="normal" in="SourceGraphic" in2="effect1_dropShadow" result="shape"/>
</filter>
<filter id="filter5_d" x="565.502" y="490.713" width="43.7017" height="53.2867" filterUnits="userSpaceOnUse" color-interpolation-filters="sRGB">
<feFlood flood-opacity="0" result="BackgroundImageFix"/>
<feColorMatrix in="SourceAlpha" type="matrix" values="0 0 0 0 0 0 0 0 0 0 0 0 0 0 0 0 0 0 127 0"/>
<feOffset dy="4"/>
<feGaussianBlur stdDeviation="2"/>
<feColorMatrix type="matrix" values="0 0 0 0 0 0 0 0 0 0 0 0 0 0 0 0 0 0 0.25 0"/>
<feBlend mode="normal" in2="BackgroundImageFix" result="effect1_dropShadow"/>
<feBlend mode="normal" in="SourceGraphic" in2="effect1_dropShadow" result="shape"/>
</filter>
<filter id="filter6_d" x="443.694" y="480.302" width="80.6585" height="51.2473" filterUnits="userSpaceOnUse" color-interpolation-filters="sRGB">
<feFlood flood-opacity="0" result="BackgroundImageFix"/>
<feColorMatrix in="SourceAlpha" type="matrix" values="0 0 0 0 0 0 0 0 0 0 0 0 0 0 0 0 0 0 127 0"/>
<feOffset dy="4"/>
<feGaussianBlur stdDeviation="2"/>
<feColorMatrix type="matrix" values="0 0 0 0 0 0 0 0 0 0 0 0 0 0 0 0 0 0 0.25 0"/>
<feBlend mode="normal" in2="BackgroundImageFix" result="effect1_dropShadow"/>
<feBlend mode="normal" in="SourceGraphic" in2="effect1_dropShadow" result="shape"/>
</filter>
<filter id="filter7_d" x="478.954" y="16.6322" width="61.4244" height="61.4181" filterUnits="userSpaceOnUse" color-interpolation-filters="sRGB">
<feFlood flood-opacity="0" result="BackgroundImageFix"/>
<feColorMatrix in="SourceAlpha" type="matrix" values="0 0 0 0 0 0 0 0 0 0 0 0 0 0 0 0 0 0 127 0"/>
<feOffset dy="4"/>
<feGaussianBlur stdDeviation="2"/>
<feColorMatrix type="matrix" values="0 0 0 0 0 0 0 0 0 0 0 0 0 0 0 0 0 0 0.25 0"/>
<feBlend mode="normal" in2="BackgroundImageFix" result="effect1_dropShadow"/>
<feBlend mode="normal" in="SourceGraphic" in2="effect1_dropShadow" result="shape"/>
</filter>
<filter id="filter8_d" x="495.805" y="50.2856" width="49.3815" height="80.6487" filterUnits="userSpaceOnUse" color-interpolation-filters="sRGB">
<feFlood flood-opacity="0" result="BackgroundImageFix"/>
<feColorMatrix in="SourceAlpha" type="matrix" values="0 0 0 0 0 0 0 0 0 0 0 0 0 0 0 0 0 0 127 0"/>
<feOffset dy="4"/>
<feGaussianBlur stdDeviation="2"/>
<feColorMatrix type="matrix" values="0 0 0 0 0 0 0 0 0 0 0 0 0 0 0 0 0 0 0.25 0"/>
<feBlend mode="normal" in2="BackgroundImageFix" result="effect1_dropShadow"/>
<feBlend mode="normal" in="SourceGraphic" in2="effect1_dropShadow" result="shape"/>
</filter>
<filter id="filter9_d" x="470.941" y="65.2429" width="94.5471" height="157.571" filterUnits="userSpaceOnUse" color-interpolation-filters="sRGB">
<feFlood flood-opacity="0" result="BackgroundImageFix"/>
<feColorMatrix in="SourceAlpha" type="matrix" values="0 0 0 0 0 0 0 0 0 0 0 0 0 0 0 0 0 0 127 0"/>
<feOffset dy="4"/>
<feGaussianBlur stdDeviation="2"/>
<feColorMatrix type="matrix" values="0 0 0 0 0 0 0 0 0 0 0 0 0 0 0 0 0 0 0.25 0"/>
<feBlend mode="normal" in2="BackgroundImageFix" result="effect1_dropShadow"/>
<feBlend mode="normal" in="SourceGraphic" in2="effect1_dropShadow" result="shape"/>
</filter>
<filter id="filter10_d" x="535.05" y="69.0268" width="69.9238" height="207.324" filterUnits="userSpaceOnUse" color-interpolation-filters="sRGB">
<feFlood flood-opacity="0" result="BackgroundImageFix"/>
<feColorMatrix in="SourceAlpha" type="matrix" values="0 0 0 0 0 0 0 0 0 0 0 0 0 0 0 0 0 0 127 0"/>
<feOffset dy="4"/>
<feGaussianBlur stdDeviation="2"/>
<feColorMatrix type="matrix" values="0 0 0 0 0 0 0 0 0 0 0 0 0 0 0 0 0 0 0.25 0"/>
<feBlend mode="normal" in2="BackgroundImageFix" result="effect1_dropShadow"/>
<feBlend mode="normal" in="SourceGraphic" in2="effect1_dropShadow" result="shape"/>
</filter>
<filter id="filter11_d" x="455.264" y="88.2497" width="47.2988" height="197.419" filterUnits="userSpaceOnUse" color-interpolation-filters="sRGB">
<feFlood flood-opacity="0" result="BackgroundImageFix"/>
<feColorMatrix in="SourceAlpha" type="matrix" values="0 0 0 0 0 0 0 0 0 0 0 0 0 0 0 0 0 0 127 0"/>
<feOffset dy="4"/>
<feGaussianBlur stdDeviation="2"/>
<feColorMatrix type="matrix" values="0 0 0 0 0 0 0 0 0 0 0 0 0 0 0 0 0 0 0.25 0"/>
<feBlend mode="normal" in2="BackgroundImageFix" result="effect1_dropShadow"/>
<feBlend mode="normal" in="SourceGraphic" in2="effect1_dropShadow" result="shape"/>
</filter>
<filter id="filter12_d" x="435.146" y="103.17" width="54.4055" height="152.229" filterUnits="userSpaceOnUse" color-interpolation-filters="sRGB">
<feFlood flood-opacity="0" result="BackgroundImageFix"/>
<feColorMatrix in="SourceAlpha" type="matrix" values="0 0 0 0 0 0 0 0 0 0 0 0 0 0 0 0 0 0 127 0"/>
<feOffset dy="4"/>
<feGaussianBlur stdDeviation="2"/>
<feColorMatrix type="matrix" values="0 0 0 0 0 0 0 0 0 0 0 0 0 0 0 0 0 0 0.25 0"/>
<feBlend mode="normal" in2="BackgroundImageFix" result="effect1_dropShadow"/>
<feBlend mode="normal" in="SourceGraphic" in2="effect1_dropShadow" result="shape"/>
</filter>
<filter id="filter13_d" x="541.012" y="223.895" width="36.7637" height="37.6057" filterUnits="userSpaceOnUse" color-interpolation-filters="sRGB">
<feFlood flood-opacity="0" result="BackgroundImageFix"/>
<feColorMatrix in="SourceAlpha" type="matrix" values="0 0 0 0 0 0 0 0 0 0 0 0 0 0 0 0 0 0 127 0"/>
<feOffset dy="4"/>
<feGaussianBlur stdDeviation="2"/>
<feColorMatrix type="matrix" values="0 0 0 0 0 0 0 0 0 0 0 0 0 0 0 0 0 0 0.25 0"/>
<feBlend mode="normal" in2="BackgroundImageFix" result="effect1_dropShadow"/>
<feBlend mode="normal" in="SourceGraphic" in2="effect1_dropShadow" result="shape"/>
</filter>
<filter id="filter14_d" x="555.885" y="215.348" width="30.4382" height="40.0508" filterUnits="userSpaceOnUse" color-interpolation-filters="sRGB">
<feFlood flood-opacity="0" result="BackgroundImageFix"/>
<feColorMatrix in="SourceAlpha" type="matrix" values="0 0 0 0 0 0 0 0 0 0 0 0 0 0 0 0 0 0 127 0"/>
<feOffset dy="4"/>
<feGaussianBlur stdDeviation="2"/>
<feColorMatrix type="matrix" values="0 0 0 0 0 0 0 0 0 0 0 0 0 0 0 0 0 0 0.25 0"/>
<feBlend mode="normal" in2="BackgroundImageFix" result="effect1_dropShadow"/>
<feBlend mode="normal" in="SourceGraphic" in2="effect1_dropShadow" result="shape"/>
</filter>
<filter id="filter15_d" x="555.885" y="81.8023" width="65.6984" height="171.46" filterUnits="userSpaceOnUse" color-interpolation-filters="sRGB">
<feFlood flood-opacity="0" result="BackgroundImageFix"/>
<feColorMatrix in="SourceAlpha" type="matrix" values="0 0 0 0 0 0 0 0 0 0 0 0 0 0 0 0 0 0 127 0"/>
<feOffset dy="4"/>
<feGaussianBlur stdDeviation="2"/>
<feColorMatrix type="matrix" values="0 0 0 0 0 0 0 0 0 0 0 0 0 0 0 0 0 0 0.25 0"/>
<feBlend mode="normal" in2="BackgroundImageFix" result="effect1_dropShadow"/>
<feBlend mode="normal" in="SourceGraphic" in2="effect1_dropShadow" result="shape"/>
</filter>
<filter id="filter16_d" x="467.888" y="0" width="75.2725" height="59.3765" filterUnits="userSpaceOnUse" color-interpolation-filters="sRGB">
<feFlood flood-opacity="0" result="BackgroundImageFix"/>
<feColorMatrix in="SourceAlpha" type="matrix" values="0 0 0 0 0 0 0 0 0 0 0 0 0 0 0 0 0 0 127 0"/>
<feOffset dy="4"/>
<feGaussianBlur stdDeviation="2"/>
<feColorMatrix type="matrix" values="0 0 0 0 0 0 0 0 0 0 0 0 0 0 0 0 0 0 0.25 0"/>
<feBlend mode="normal" in2="BackgroundImageFix" result="effect1_dropShadow"/>
<feBlend mode="normal" in="SourceGraphic" in2="effect1_dropShadow" result="shape"/>
</filter>
<filter id="filter17_d" x="524.579" y="35.3285" width="13.9835" height="15.4785" filterUnits="userSpaceOnUse" color-interpolation-filters="sRGB">
<feFlood flood-opacity="0" result="BackgroundImageFix"/>
<feColorMatrix in="SourceAlpha" type="matrix" values="0 0 0 0 0 0 0 0 0 0 0 0 0 0 0 0 0 0 127 0"/>
<feOffset dy="4"/>
<feGaussianBlur stdDeviation="2"/>
<feColorMatrix type="matrix" values="0 0 0 0 0 0 0 0 0 0 0 0 0 0 0 0 0 0 0.25 0"/>
<feBlend mode="normal" in2="BackgroundImageFix" result="effect1_dropShadow"/>
<feBlend mode="normal" in="SourceGraphic" in2="effect1_dropShadow" result="shape"/>
</filter>
<clipPath id="clip0">
<rect width="667" height="536" fill="white"/>
</clipPath>
</defs>
</svg>
